<svg width="91" height="58" viewBox="0 0 91 58" fill="none" xmlns="http://www.w3.org/2000/svg">
<path d="M12.696 38L9.456 33.32H9.264H5.88V38H1.992V21.2H9.264C10.752 21.2 12.04 21.448 13.128 21.944C14.232 22.44 15.08 23.144 15.672 24.056C16.264 24.968 16.56 26.048 16.56 27.296C16.56 28.544 16.256 29.624 15.648 30.536C15.056 31.432 14.208 32.12 13.104 32.6L16.872 38H12.696ZM12.624 27.296C12.624 26.352 12.32 25.632 11.712 25.136C11.104 24.624 10.216 24.368 9.048 24.368H5.88V30.224H9.048C10.216 30.224 11.104 29.968 11.712 29.456C12.32 28.944 12.624 28.224 12.624 27.296ZM32.1244 31.592C32.1244 31.64 32.1004 31.976 32.0524 32.6H22.2844C22.4604 33.4 22.8764 34.032 23.5324 34.496C24.1884 34.96 25.0044 35.192 25.9804 35.192C26.6524 35.192 27.2444 35.096 27.7564 34.904C28.2844 34.696 28.7724 34.376 29.2204 33.944L31.2124 36.104C29.9964 37.496 28.2204 38.192 25.8844 38.192C24.4284 38.192 23.1404 37.912 22.0204 37.352C20.9004 36.776 20.0364 35.984 19.4284 34.976C18.8204 33.968 18.5164 32.824 18.5164 31.544C18.5164 30.28 18.8124 29.144 19.4044 28.136C20.0124 27.112 20.8364 26.32 21.8764 25.76C22.9324 25.184 24.1084 24.896 25.4044 24.896C26.6684 24.896 27.8124 25.168 28.8364 25.712C29.8604 26.256 30.6604 27.04 31.2364 28.064C31.8284 29.072 32.1244 30.248 32.1244 31.592ZM25.4284 27.728C24.5804 27.728 23.8684 27.968 23.2924 28.448C22.7164 28.928 22.3644 29.584 22.2364 30.416H28.5964C28.4684 29.6 28.1164 28.952 27.5404 28.472C26.9644 27.976 26.2604 27.728 25.4284 27.728ZM34.7171 20.192H38.4611V38H34.7171V20.192ZM54.8518 25.088L49.4038 38H45.5398L40.1158 25.088H43.9798L47.5558 33.872L51.2518 25.088H54.8518ZM56.4796 25.088H60.2236V38H56.4796V25.088ZM58.3516 23.288C57.6636 23.288 57.1036 23.088 56.6716 22.688C56.2396 22.288 56.0236 21.792 56.0236 21.2C56.0236 20.608 56.2396 20.112 56.6716 19.712C57.1036 19.312 57.6636 19.112 58.3516 19.112C59.0396 19.112 59.5996 19.304 60.0316 19.688C60.4636 20.072 60.6796 20.552 60.6796 21.128C60.6796 21.752 60.4636 22.272 60.0316 22.688C59.5996 23.088 59.0396 23.288 58.3516 23.288ZM68.1423 38.192C67.0703 38.192 66.0223 38.064 64.9983 37.808C63.9743 37.536 63.1583 37.2 62.5503 36.8L63.7983 34.112C64.3743 34.48 65.0703 34.784 65.8863 35.024C66.7023 35.248 67.5023 35.36 68.2863 35.36C69.8703 35.36 70.6623 34.968 70.6623 34.184C70.6623 33.816 70.4463 33.552 70.0143 33.392C69.5823 33.232 68.9183 33.096 68.0223 32.984C66.9663 32.824 66.0943 32.64 65.4063 32.432C64.7183 32.224 64.1183 31.856 63.6063 31.328C63.1103 30.8 62.8623 30.048 62.8623 29.072C62.8623 28.256 63.0943 27.536 63.5583 26.912C64.0383 26.272 64.7263 25.776 65.6223 25.424C66.5343 25.072 67.6063 24.896 68.8383 24.896C69.7503 24.896 70.6543 25 71.5503 25.208C72.4623 25.4 73.2143 25.672 73.8063 26.024L72.5583 28.688C71.4223 28.048 70.1823 27.728 68.8383 27.728C68.0383 27.728 67.4383 27.84 67.0383 28.064C66.6383 28.288 66.4383 28.576 66.4383 28.928C66.4383 29.328 66.6543 29.608 67.0863 29.768C67.5183 29.928 68.2063 30.08 69.1503 30.224C70.2063 30.4 71.0703 30.592 71.7423 30.8C72.4143 30.992 72.9983 31.352 73.4943 31.88C73.9903 32.408 74.2383 33.144 74.2383 34.088C74.2383 34.888 73.9983 35.6 73.5183 36.224C73.0383 36.848 72.3343 37.336 71.4063 37.688C70.4943 38.024 69.4063 38.192 68.1423 38.192ZM89.2963 31.592C89.2963 31.64 89.2723 31.976 89.2243 32.6H79.4563C79.6323 33.4 80.0483 34.032 80.7043 34.496C81.3603 34.96 82.1763 35.192 83.1523 35.192C83.8243 35.192 84.4163 35.096 84.9283 34.904C85.4563 34.696 85.9443 34.376 86.3923 33.944L88.3843 36.104C87.1683 37.496 85.3923 38.192 83.0563 38.192C81.6003 38.192 80.3123 37.912 79.1923 37.352C78.0723 36.776 77.2083 35.984 76.6003 34.976C75.9923 33.968 75.6883 32.824 75.6883 31.544C75.6883 30.28 75.9843 29.144 76.5763 28.136C77.1843 27.112 78.0083 26.32 79.0483 25.76C80.1043 25.184 81.2803 24.896 82.5763 24.896C83.8403 24.896 84.9843 25.168 86.0083 25.712C87.0323 26.256 87.8323 27.04 88.4083 28.064C89.0003 29.072 89.2963 30.248 89.2963 31.592ZM82.6003 27.728C81.7523 27.728 81.0403 27.968 80.4643 28.448C79.8883 28.928 79.5363 29.584 79.4083 30.416H85.7683C85.6403 29.6 85.2883 28.952 84.7123 28.472C84.1363 27.976 83.4323 27.728 82.6003 27.728Z" fill="#252B42"/>
</svg>
